<svg width="138" height="138" viewBox="0 0 138 138" fill="none" xmlns="http://www.w3.org/2000/svg">
<path d="M62.6975 84.3226L63.5486 83.8901C63.6881 83.8204 67.4829 81.7137 67.4829 75.6867C67.4829 72.2407 68.9617 70.2735 70.2034 69.2272C70.8731 68.6551 71.6125 68.2366 72.3799 67.9297C70.0221 66.7717 67.3852 66.116 64.5949 66.116C60.3955 66.116 56.531 67.5809 53.4756 70.0363C53.6291 70.3293 53.7686 70.5944 53.9081 70.8316C56.4752 69.7434 59.2097 68.9202 61.1071 70.3154C61.7209 70.7618 62.7115 71.8082 62.4743 73.8311C62.2092 76.2587 60.8141 84.3366 54.3406 86.234C54.0476 86.6665 54.1871 88.8987 54.2708 90.0985C54.4522 92.7912 54.6057 95.5675 52.9873 97.4649C53.5872 97.9811 54.2011 98.4555 54.8568 98.874C56.4612 97.3952 59.2934 95.4001 62.8231 95.5257C65.8924 95.6512 68.6827 97.3254 71.1521 100.52C72.8123 99.8646 74.347 98.9717 75.7143 97.8695C70.0779 97.7858 66.0877 96.3488 63.8695 93.5725C60.9117 89.8753 62.3488 85.4248 62.4185 85.2295L62.6975 84.3226Z" fill="#EEEEEE"/>
<path d="M62.6279 100.144C61.4978 100.088 60.4375 100.506 59.5586 101.037C61.163 101.511 62.8511 101.776 64.5951 101.776C65.0555 101.776 65.5159 101.748 65.9763 101.706C64.8741 100.73 63.758 100.186 62.6279 100.144Z" fill="#EEEEEE"/>
<path d="M71.6125 56.0708C73.3564 54.1874 75.3794 51.5505 77.7233 47.8813C78.5603 46.5559 78.7836 46.2071 79.4672 45.8862C80.6252 45.3421 82.0063 45.8444 82.5505 47.0023C82.955 47.8813 82.7737 48.8858 82.1598 49.5555C82.0482 49.7229 81.8668 50.0019 81.6436 50.3647C80.1229 52.7643 78.2953 55.443 76.2584 57.8566C76.9559 57.9961 77.6395 58.0938 78.2813 58.0938C86.0104 58.0938 89.0797 47.1698 90.2656 39.7336C87.5451 41.366 84.7967 41.5473 83.6945 41.5473C83.3876 41.5473 83.1643 41.5334 83.0248 41.5194C76.928 41.5892 72.9239 43.068 71.1242 45.8862C68.9478 49.2904 70.3848 54.0478 71.0126 55.7499C71.2079 55.8615 71.4032 55.9592 71.6125 56.0708Z" fill="#EEEEEE"/>
<path d="M49.6536 90.3916C49.4443 87.2386 49.1653 82.9136 53.0438 81.7836C56.1829 80.8628 57.3408 76.5657 57.7175 74.3753C57.1316 74.5427 56.2387 74.8497 54.8854 75.4496C54.6482 75.5473 54.4668 75.631 54.3413 75.6868C52.5973 76.3843 51.2161 75.2682 50.1279 73.5662C48.0213 76.496 46.7656 80.0815 46.7656 83.96C46.7656 87.5734 47.8538 90.9357 49.7094 93.74C49.807 92.8192 49.7094 91.3124 49.6536 90.3916Z" fill="#EEEEEE"/>
<path d="M73.1897 72.7709C72.4643 73.3847 72.1155 74.3334 72.1155 75.6867C72.1155 82.5648 68.4881 86.0527 66.6465 87.392C66.5488 88.2012 66.5628 89.5685 67.4836 90.7125C69.1996 92.8191 73.6083 93.6423 79.8725 93.0563C81.4769 90.3776 82.4116 87.2665 82.4116 83.9321C82.4116 79.2165 80.5561 74.9334 77.5565 71.7385C76.3567 71.6827 74.3617 71.7803 73.1897 72.7709Z" fill="#EEEEEE"/>
<path d="M68.8505 0C30.8188 0 0 30.8188 0 68.8505C0 106.882 30.8188 137.701 68.8505 137.701C106.882 137.701 137.701 106.882 137.701 68.8505C137.701 30.8188 106.882 0 68.8505 0ZM80.0675 67.7065C80.1791 67.7902 80.2907 67.8878 80.3883 67.9995C84.504 72.0733 87.0571 77.7236 87.0571 83.946C87.0571 94.1166 80.2628 102.711 70.9851 105.473C70.9293 105.487 70.8595 105.501 70.8037 105.515C68.8226 106.087 66.7438 106.408 64.5953 106.408C60.9261 106.408 57.48 105.501 54.4107 103.938C54.2991 103.897 54.2014 103.841 54.0898 103.785C51.5507 102.446 49.3184 100.618 47.4768 98.4555C47.4071 98.3857 47.3513 98.316 47.2815 98.2462C47.2676 98.2323 47.2536 98.2044 47.2397 98.1904C47.1978 98.1346 47.142 98.0788 47.1141 98.009C44.0029 94.1584 42.1334 89.2615 42.1334 83.932C42.1334 77.6399 44.7423 71.9617 48.9138 67.8739C49.0394 67.7344 49.165 67.6088 49.3184 67.5111C51.1321 65.8091 53.2248 64.4139 55.5408 63.3955C54.5223 62.7258 53.5736 61.9445 52.7365 61.0377C50.03 58.1358 48.6069 54.2852 48.8301 50.5043C49.1092 45.8585 52.1924 43.5425 55.1222 43.3054C58.4148 43.0403 61.3306 45.1051 62.0422 48.2302C62.6281 50.8252 61.805 52.3599 61.0237 53.1969C59.2658 55.0385 56.5592 54.6618 56.0291 54.5642C54.7735 54.341 53.9364 53.1272 54.1596 51.8716C54.3828 50.6159 55.5826 49.7928 56.8243 50.002C57.0615 50.0439 57.4103 50.03 57.6056 49.9881C57.6056 49.8625 57.6056 49.6254 57.5219 49.2626C57.2987 48.286 56.336 47.8535 55.4989 47.9233C54.2991 48.021 53.5457 49.0673 53.4481 50.7833C53.2946 53.3086 54.2712 55.9035 56.1128 57.8846C57.8288 59.7262 60.1587 60.9121 62.7816 61.3027C63.228 60.7307 63.9256 60.368 64.665 60.3819C65.4882 60.3959 66.5625 60.1308 67.9157 59.2798L67.3437 58.931L67.0507 58.2892C66.8973 57.9404 63.1862 49.737 67.2042 43.403C69.8968 39.1478 75.2542 36.9435 83.0949 36.8737H83.2344L83.3739 36.8877C83.3879 36.8877 83.5135 36.9016 83.7088 36.9016C85.1458 36.9016 88.7174 36.4831 90.8101 32.6185C91.2565 31.7954 92.1076 31.2792 93.0423 31.2792C93.7399 31.2792 94.4235 31.5722 94.9118 32.0884C95.3862 32.6046 95.6373 33.2882 95.5954 33.9997C95.149 40.7383 92.5819 62.7258 78.2956 62.7258C76.4959 62.7258 74.5845 62.3352 72.5895 61.5957C72.1988 61.9306 71.7942 62.2375 71.3896 62.5305C74.6543 63.5768 77.6259 65.3766 80.0675 67.7065Z" fill="#EEEEEE"/>
</svg>
