<svg width="139" height="138" viewBox="0 0 139 138" fill="none" xmlns="http://www.w3.org/2000/svg">
<path fill-rule="evenodd" clip-rule="evenodd" d="M69.5 138C107.608 138 138.5 107.108 138.5 69C138.5 30.8924 107.608 0 69.5 0C31.3924 0 0.5 30.8924 0.5 69C0.5 107.108 31.3924 138 69.5 138ZM23 90.5C23 86.9101 25.9101 84 29.5 84H58.4543C60.822 87.8969 65.107 90.5 70 90.5C74.893 90.5 79.178 87.8969 81.5457 84H109.5C113.09 84 116 86.9101 116 90.5C116 94.0899 113.09 97 109.5 97H29.5C25.9102 97 23 94.0899 23 90.5ZM83.3529 79H104.811C103.32 63.5875 93.2018 54.2121 81 50.744V59.5C81 60.8807 79.8807 62 78.5 62C77.1193 62 76 60.8807 76 59.5V41C76 37.6863 73.3137 35 70 35C66.6863 35 64 37.6863 64 41V59.5C64 60.8807 62.8807 62 61.5 62C60.1193 62 59 60.8807 59 59.5V50.7433C46.7911 54.211 36.6803 63.5986 35.1894 79H56.6471C56.5502 78.3474 56.5 77.6796 56.5 77C56.5 69.5442 62.5442 63.5 70 63.5C77.4558 63.5 83.5 69.5442 83.5 77C83.5 77.6796 83.4498 78.3474 83.3529 79ZM29.5 79H30.1674C31.7521 60.4079 44.3775 49.2289 59 45.5702V41C59 34.9249 63.9249 30 70 30C76.0751 30 81 34.9249 81 41V45.5698C95.632 49.2277 108.25 60.422 109.833 79.0047C116.03 79.1809 121 84.2601 121 90.5C121 96.8513 115.851 102 109.5 102H29.5C23.1487 102 18 96.8513 18 90.5C18 84.1487 23.1487 79 29.5 79ZM78.5 77C78.5 81.6944 74.6944 85.5 70 85.5C65.3056 85.5 61.5 81.6944 61.5 77C61.5 72.3056 65.3056 68.5 70 68.5C74.6944 68.5 78.5 72.3056 78.5 77Z" fill="white"/>
</svg>
