<svg width="138" height="138" viewBox="0 0 138 138" fill="none" xmlns="http://www.w3.org/2000/svg">
<path d="M70.1201 73.2314H77.5702L76.9284 71.2224H70.1201V73.2314Z" fill="#EEEEEE"/>
<path d="M65.4884 73.2314V71.2224H58.9591L58.415 73.2314H65.4884Z" fill="#EEEEEE"/>
<path d="M89.9589 77.8491H83.918L85.2713 82.0346H92.7353L89.9589 77.8491Z" fill="#EEEEEE"/>
<path d="M70.1201 77.8491V82.0346H80.4023L79.063 77.8491H70.1201Z" fill="#EEEEEE"/>
<path d="M81.8952 86.6665H70.1201V90.9496H83.2624L81.8952 86.6665Z" fill="#EEEEEE"/>
<path d="M82.4396 73.2314H86.8902L85.5648 71.2224H81.7979L82.4396 73.2314Z" fill="#EEEEEE"/>
<path d="M65.4883 86.6665H54.6898L53.5039 90.9496H65.4883V86.6665Z" fill="#EEEEEE"/>
<path d="M52.3324 77.8491H45.5102L42.7617 82.0346H51.1745L52.3324 77.8491Z" fill="#EEEEEE"/>
<path d="M65.4885 77.8491H57.1316L55.9736 82.0346H65.4885V77.8491Z" fill="#EEEEEE"/>
<path d="M99.1251 36.6785C96.0418 36.6785 93.5166 39.1897 93.5166 42.2869C93.5166 45.3842 96.0279 47.8955 99.1251 47.8955C102.208 47.8955 104.734 45.3842 104.734 42.2869C104.734 39.1897 102.208 36.6785 99.1251 36.6785Z" fill="#EEEEEE"/>
<path d="M68.8505 0C30.8188 0 0 30.8188 0 68.8505C0 106.882 30.8188 137.701 68.8505 137.701C106.882 137.701 137.701 106.882 137.701 68.8505C137.701 30.8188 106.882 0 68.8505 0ZM76.3145 105.654H59.7123V95.5815H28.3494L47.3373 66.6043H88.0337L107.273 95.5815H76.3006V105.654H76.3145ZM99.1252 52.5133C93.4888 52.5133 88.8988 47.9233 88.8988 42.2869C88.8988 36.6505 93.4888 32.0605 99.1252 32.0605C104.762 32.0605 109.352 36.6505 109.352 42.2869C109.352 47.9233 104.762 52.5133 99.1252 52.5133Z" fill="#EEEEEE"/>
<path d="M86.75 86.6665L88.1312 90.9496H98.6506L95.8045 86.6665H86.75Z" fill="#EEEEEE"/>
<path d="M53.6015 73.2314L54.1595 71.2224H49.8485L48.5371 73.2314H53.6015Z" fill="#EEEEEE"/>
<path d="M49.8906 86.6665H39.7339L36.9297 90.9496H48.7047L49.8906 86.6665Z" fill="#EEEEEE"/>
<path d="M71.6822 95.5815H64.3438V101.023H71.6822V95.5815Z" fill="#EEEEEE"/>
</svg>
