<svg width="138" height="138" viewBox="0 0 138 138" fill="none" xmlns="http://www.w3.org/2000/svg">
<path d="M68.386 48.9517C61.9125 48.9517 56.6528 54.2113 56.6528 60.6848C56.6528 64.8423 58.899 68.7209 62.4985 70.8275L63.768 71.5669L63.6006 73.3667L63.5867 75.2222C63.5867 76.7848 63.5867 77.7196 68.4836 77.7196C73.3946 77.7196 73.3946 77.0359 73.3946 75.2222V73.4922C73.3946 73.4225 73.3806 73.3528 73.3667 73.2691L73.1714 71.4972L74.441 70.7299C78.0125 68.5814 80.1331 64.8284 80.1331 60.6848C80.1192 54.2113 74.8595 48.9517 68.386 48.9517Z" fill="#EEEEEE"/>
<path d="M68.9999 0.149414C30.9682 0.149414 0.149414 30.9683 0.149414 68.9999C0.149414 107.032 30.9682 137.85 68.9999 137.85C107.032 137.85 137.85 107.032 137.85 68.9999C137.85 30.9683 107.018 0.149414 68.9999 0.149414ZM66.2375 31.0519C66.2375 29.7684 67.2699 28.736 68.5535 28.736C69.837 28.736 70.8694 29.7684 70.8694 31.0519V38.1532C70.8694 39.4367 69.837 40.4692 68.5535 40.4692C67.2699 40.4692 66.2375 39.4367 66.2375 38.1532V31.0519ZM51.7977 33.033C52.8441 32.2936 54.2811 32.5308 55.0345 33.5632L59.1781 39.3391C59.9175 40.3715 59.6803 41.8225 58.6479 42.5759C58.2433 42.8689 57.769 43.0084 57.2946 43.0084C56.5691 43.0084 55.8576 42.6735 55.4112 42.0457L51.2676 36.2698C50.5142 35.2234 50.7514 33.7864 51.7977 33.033ZM51.1839 52.9278C50.8351 53.8626 49.9561 54.4346 49.0214 54.4346C48.7563 54.4346 48.4773 54.3927 48.2122 54.2811L41.5574 51.7838C40.3575 51.3374 39.7576 49.998 40.2041 48.7982C40.6505 47.5983 41.9899 46.9985 43.1897 47.4449L49.8445 49.9422C51.0304 50.3886 51.6443 51.728 51.1839 52.9278ZM75.9338 104.492C75.3757 107.255 72.2785 109.264 68.5535 109.264C64.8284 109.264 61.7312 107.255 61.1731 104.492L60.6151 101.716H76.4918L75.9338 104.492ZM75.4594 100.349H61.8567C60.5732 100.349 59.5408 99.3165 59.5408 98.033C59.5408 96.7494 60.5732 95.717 61.8567 95.717H75.4594C76.743 95.717 77.7754 96.7494 77.7754 98.033C77.7754 99.3165 76.743 100.349 75.4594 100.349ZM75.4594 94.559H61.8567C60.5732 94.559 59.5408 93.5266 59.5408 92.2431C59.5408 90.9595 60.5732 89.9271 61.8567 89.9271H75.4594C76.743 89.9271 77.7754 90.9595 77.7754 92.2431C77.7754 93.5266 76.743 94.559 75.4594 94.559ZM75.4594 88.6715H61.8567C60.5732 88.6715 59.5408 87.6391 59.5408 86.3556C59.5408 85.072 60.5732 84.0396 61.8567 84.0396H75.4594C76.743 84.0396 77.7754 85.072 77.7754 86.3556C77.7754 87.6391 76.743 88.6715 75.4594 88.6715ZM78.0126 73.9108V75.2223C78.0126 82.3514 71.8041 82.3515 68.4837 82.3515C65.6376 82.3515 58.9549 82.3514 58.9549 75.2223V74.0504C54.6438 70.995 52.021 66.0004 52.021 60.6988C52.021 51.6722 59.3594 44.3338 68.386 44.3338C77.4126 44.3338 84.7511 51.6722 84.7511 60.6988C84.7511 65.9864 82.2538 70.8275 78.0126 73.9108ZM82.2399 42.0457C81.7934 42.6735 81.0819 43.0084 80.3564 43.0084C79.896 43.0084 79.4216 42.8689 79.0031 42.5759C77.9707 41.8364 77.7335 40.3855 78.4729 39.3391L82.6165 33.5632C83.3559 32.5308 84.8069 32.2936 85.8533 33.033C86.8857 33.7725 87.1229 35.2234 86.3834 36.2698L82.2399 42.0457ZM96.4285 51.7838L89.7736 54.2811C89.5086 54.3787 89.2295 54.4346 88.9644 54.4346C88.0297 54.4346 87.1507 53.8626 86.802 52.9278C86.3555 51.728 86.9554 50.3886 88.1553 49.9422L94.8101 47.4449C96.0099 46.9985 97.3353 47.5983 97.7957 48.7982C98.2282 49.998 97.6283 51.3234 96.4285 51.7838Z" fill="#EEEEEE"/>
</svg>
