<svg width="139" height="138" viewBox="0 0 139 138" fill="none" xmlns="http://www.w3.org/2000/svg">
<path d="M96.3845 97.4887V65.2608L69.4861 41.9758L43.5503 63.8796C43.5642 63.9912 43.5782 64.0889 43.5782 64.2005V97.4887H96.3845ZM58.2691 86.8019C58.4365 86.774 60.4874 86.4113 62.7614 85.2114C61.0036 83.314 58.9527 80.2866 59.6363 76.8963C60.4037 73.0876 64.1845 70.381 71.1742 68.6371C72.96 68.0651 76.5316 66.5025 77.8988 64.926L81.1077 61.2289L81.9168 66.0561C82.1819 67.6047 84.3165 81.305 79.3079 87.2344C77.7593 89.062 75.6526 90.0247 73.225 90.0247C71.2718 90.0247 69.1373 89.4248 66.7237 88.197C63.0265 90.6804 59.2457 91.3222 58.9806 91.364C58.855 91.378 58.7434 91.3919 58.6179 91.3919C57.5017 91.3919 56.5112 90.5688 56.3298 89.4387C56.1485 88.1831 57.0134 87.0112 58.2691 86.8019Z" fill="#EEEEEE"/>
<path d="M66.4586 82.3792C67.4631 81.2631 68.3141 79.8958 68.8303 78.1937C69.193 76.966 70.5045 76.2824 71.7183 76.6451C72.946 77.0218 73.6296 78.3053 73.2669 79.5331C72.6251 81.6397 71.6345 83.3697 70.4766 84.8067C71.509 85.1974 72.4437 85.4066 73.239 85.4066C74.3272 85.4066 75.1085 85.0439 75.7782 84.2487C78.0383 81.57 78.1359 75.236 77.8011 70.7437C75.3596 72.1388 72.8344 72.9619 72.4298 73.1014C67.491 74.3431 64.5333 76.0452 64.1705 77.831C63.8775 79.268 65.203 81.1096 66.4586 82.3792Z" fill="#EEEEEE"/>
<path d="M69.4999 0.149414C31.4682 0.149414 0.649414 30.9682 0.649414 68.9999C0.649414 107.032 31.4682 137.85 69.4999 137.85C107.532 137.85 138.35 107.032 138.35 68.9999C138.35 30.9822 107.532 0.149414 69.4999 0.149414ZM106.053 102.121H32.961C31.6775 102.121 30.6451 101.088 30.6451 99.8047C30.6451 98.5212 31.6775 97.4888 32.961 97.4888H38.9601V67.7582L34.4538 71.567C33.4772 72.3901 32.0123 72.2645 31.1892 71.2879C30.366 70.3113 30.4916 68.8464 31.4682 68.0233L69.5278 35.8791L76.9779 42.3247V36.6185H95.3101V58.2015L107.587 68.8325C108.55 69.6696 108.662 71.1345 107.825 72.0971C107.364 72.6273 106.722 72.8923 106.067 72.8923C105.537 72.8923 104.992 72.711 104.56 72.3343L101.03 69.2789V97.5027H106.067C107.35 97.5027 108.383 98.5351 108.383 99.8187C108.369 101.088 107.322 102.121 106.053 102.121Z" fill="#EEEEEE"/>
<path d="M90.664 41.2366H81.5956V45.8685C81.5956 46.008 81.5816 46.1614 81.5537 46.287L90.664 54.1696V41.2366Z" fill="#EEEEEE"/>
</svg>
