<svg width="138" height="138" viewBox="0 0 138 138" fill="none" xmlns="http://www.w3.org/2000/svg">
<path fill-rule="evenodd" clip-rule="evenodd" d="M138 69C138 107.108 107.108 138 69 138C30.8924 138 0 107.108 0 69C0 30.8924 30.8924 0 69 0C107.108 0 138 30.8924 138 69ZM64.7581 70.0001C62.1648 69.4589 59.6861 68.4238 57.463 66.9374C55.9931 69.8139 53.7151 72.2003 50.9077 73.8047C49.4905 74.6146 47.9695 75.2075 46.3952 75.5715H49.75C50.2098 75.5783 50.6688 75.6109 51.125 75.669C52.0864 73.9422 53.4853 72.5064 55.1772 71.5099C56.8691 70.5134 58.7929 69.9922 60.75 70.0001H64.7581ZM38.8846 75.5715C36.6673 75.0588 34.5689 74.0951 32.7251 72.7296C30.1271 70.8056 28.1473 68.1674 27.0279 65.1378C25.9085 62.1082 25.6982 58.8187 26.4225 55.6716C27.1468 52.5246 28.7745 49.6565 31.1063 47.4184C33.4381 45.1803 36.373 43.6691 39.5517 43.0698C42.7305 42.4706 46.0154 42.8091 49.0044 44.0442C50.2484 39.7093 52.8726 35.8965 56.4801 33.1823C60.0877 30.4681 64.4824 29 69 29C73.5176 29 77.9123 30.4681 81.5199 33.1823C85.1274 35.8965 87.7516 39.7093 88.9956 44.0442C91.9846 42.8091 95.2695 42.4706 98.4483 43.0698C101.627 43.6691 104.562 45.1803 106.894 47.4184C109.226 49.6565 110.853 52.5246 111.578 55.6716C112.302 58.8187 112.091 62.1082 110.972 65.1378C109.853 68.1674 107.873 70.8056 105.275 72.7296C103.431 74.0951 101.333 75.0588 99.1154 75.5715H102C104.917 75.5715 107.715 76.7455 109.778 78.8352C111.841 80.9249 113 83.7591 113 86.7143V103.429C113 104.906 112.421 106.323 111.389 107.368C110.358 108.413 108.959 109 107.5 109H30.5C29.0413 109 27.6424 108.413 26.6109 107.368C25.5795 106.323 25 104.906 25 103.429V86.7143C25 83.7591 26.1589 80.9249 28.2218 78.8352C30.2847 76.7455 33.0826 75.5715 36 75.5715H38.8846ZM91.6048 75.5715C90.0305 75.2075 88.5095 74.6146 87.0923 73.8047C84.2849 72.2003 82.0069 69.8139 80.537 66.9374C78.3139 68.4238 75.8352 69.4589 73.2419 70.0001H77.25C79.2071 69.9922 81.1309 70.5134 82.8228 71.5099C84.5147 72.5064 85.9136 73.9422 86.875 75.669C87.3312 75.6109 87.7902 75.5783 88.25 75.5715H91.6048ZM106.44 59.3663C106.432 61.9747 105.502 64.4966 103.814 66.4875C102.126 68.4785 99.7874 69.8106 97.2114 70.2491C94.6354 70.6875 91.987 70.2042 89.7331 68.8843C87.4792 67.5644 85.7644 65.4926 84.8911 63.0342C88.031 59.3344 89.7685 54.6509 89.7999 49.8021C91.4844 48.8313 93.3951 48.3197 95.3402 48.3186C97.2854 48.3175 99.1966 48.8269 100.882 49.7958C102.568 50.7647 103.969 52.1589 104.944 53.8387C105.92 55.5185 106.435 57.4248 106.44 59.3663ZM69 34.4523C72.0168 34.4523 74.9659 35.3452 77.4743 37.0182C79.9826 38.6912 81.9377 41.069 83.0922 43.8511C84.2467 46.6331 84.5487 49.6944 83.9602 52.6478C83.3716 55.6012 81.9189 58.3141 79.7857 60.4434C77.6525 62.5727 74.9346 64.0228 71.9758 64.6102C69.0169 65.1977 65.95 64.8962 63.1628 63.7438C60.3757 62.5915 57.9934 60.64 56.3174 58.1362C54.6413 55.6324 53.7467 52.6888 53.7467 49.6775C53.7467 45.6395 55.3538 41.7669 58.2143 38.9117C61.0749 36.0564 64.9546 34.4523 69 34.4523ZM42.6535 70.4392C40.948 70.4459 39.2639 70.0599 37.7321 69.3113C36.2003 68.5627 34.8621 67.4717 33.8214 66.123C32.7807 64.7743 32.0656 63.2042 31.7316 61.5347C31.3976 59.8653 31.4538 58.1415 31.8957 56.4973C32.3376 54.853 33.1534 53.3326 34.2797 52.0542C35.406 50.7758 36.8124 49.7739 38.3896 49.1262C39.9669 48.4785 41.6725 48.2026 43.374 48.3198C45.0755 48.437 46.7269 48.9443 48.2001 49.8021C48.2315 54.6509 49.969 59.3344 53.1089 63.0342C52.3482 65.1968 50.934 67.0706 49.0613 68.3969C47.1886 69.7233 44.9497 70.4368 42.6535 70.4392ZM56.8609 77.2033C55.8295 78.2482 55.25 79.6653 55.25 81.1429V103.429H82.75V81.1429C82.75 79.6653 82.1705 78.2482 81.1391 77.2033C80.1076 76.1585 78.7087 75.5715 77.25 75.5715H60.75C59.2913 75.5715 57.8924 76.1585 56.8609 77.2033ZM30.5 86.7143V103.429H49.75V81.1429H36C34.5413 81.1429 33.1424 81.7299 32.1109 82.7747C31.0795 83.8196 30.5 85.2367 30.5 86.7143ZM88.25 103.429H107.5V86.7143C107.5 85.2367 106.921 83.8196 105.889 82.7747C104.858 81.7299 103.459 81.1429 102 81.1429H88.25V103.429Z" fill="white"/>
</svg>
