<svg width="503" height="503" viewBox="0 0 503 503" fill="none" xmlns="http://www.w3.org/2000/svg">
<path d="M234.79 0.743896H264.019L285.94 2.93694L306.4 6.59202L326.13 11.7091L342.936 17.5572L359.742 24.8674L371.434 30.7155L383.125 37.2946L400.662 48.9909L410.892 57.0321L421.122 65.8042L426.237 70.9213L432.083 76.0384L438.659 83.3486L445.967 91.3898L456.927 106.01L464.234 116.975L471.542 129.403L479.579 144.754L487.617 164.491L493.463 182.767L498.578 204.697L501.501 225.165L502.231 233.938V268.295L500.039 288.764L495.655 311.425L490.54 329.701L483.964 347.245L475.926 364.789L467.157 380.872L459.119 393.299L448.889 407.188L440.121 417.422L433.544 424.733L419.661 438.622L411.623 445.201L400.662 453.973L383.125 465.669L367.78 474.442L350.974 482.483L329.783 490.524L308.592 496.372L289.594 500.027L270.595 502.22L259.635 502.951H245.02L221.638 500.758L199.716 497.103L177.064 491.255L158.066 484.676L138.336 475.904L124.453 468.593L109.108 459.09L95.9549 449.587L86.4556 441.546L80.6099 436.429L73.3028 429.85L65.2649 421.809L58.6885 413.767L50.6507 404.264L40.4207 389.644L33.8443 378.679L25.0757 362.596L16.3071 342.128L9.73072 321.659L5.34644 304.115L2.42358 286.571L0.231445 262.447V239.055L2.42358 214.931L6.07715 195.194L11.1921 175.456L16.3071 160.836L23.6143 143.292L30.9214 129.403L38.9592 115.513L49.1892 100.893L57.2271 90.6587L63.8035 83.3486L68.9185 77.5005L82.0713 64.3422L90.1092 57.7631L101.801 48.2599L114.953 39.4877L125.914 32.9086L142.721 24.1364L159.527 16.8262L179.256 10.2471L196.793 5.861L218.715 2.20593L234.79 0.743896ZM280.095 45.3358L266.211 47.5289L249.405 51.9149L233.329 57.7631L216.523 65.8042L201.908 74.5764L189.486 83.3486L179.987 91.3898L171.949 97.9689L162.45 107.472L155.873 115.513L150.758 121.361L141.99 133.789L135.413 144.754L127.376 161.567L122.261 176.919L118.607 192.27L116.415 206.89L115.684 216.393V233.207L117.146 247.096L120.799 263.178L125.914 277.799L133.221 292.419L140.528 303.384L147.836 312.887L156.604 322.39L162.45 326.046L169.026 326.777L175.603 324.584L179.987 321.659L179.256 319.466L161.719 307.77L172.68 304.846L185.102 301.922V299.729L177.795 293.15L169.757 286.571L161.719 279.261L160.258 278.53L160.988 276.337L174.141 279.261L194.601 284.378L196.063 281.454L169.757 242.71L154.412 220.048L155.873 217.855L158.796 219.317L176.333 236.862L182.179 241.979L212.138 271.95H213.6L209.946 252.213L203.37 218.586H205.562L227.483 259.523L230.406 264.64L233.329 263.909L234.06 261.716L243.559 146.947V144.023H246.482L247.213 167.415L251.597 263.909L255.25 264.64L260.365 257.33L266.942 245.634L279.364 225.165L282.287 220.048L284.479 221.51L272.057 270.488L272.787 272.681L274.98 273.412L286.671 262.447L293.978 255.868L302.747 247.827L308.592 242.71L318.092 233.938L326.86 225.897L333.437 220.048L334.898 220.779L333.437 223.703L312.977 251.482L301.285 266.833L291.055 280.723L287.402 285.84L288.863 288.033L302.016 285.109L324.668 279.261L323.207 282.916L315.169 289.495L305.67 297.536L297.632 304.115L296.901 305.577L312.246 309.963L318.822 312.156L301.285 323.853L299.824 324.584V326.046L308.592 331.163L310.785 331.894H315.9L321.015 328.97L331.245 320.197L340.744 309.963L350.243 296.805L357.55 283.647L363.396 269.757L367.049 255.868L368.511 246.365V226.628L365.588 212.007L361.204 199.58L354.627 187.153L346.59 174.725L339.282 164.491L330.514 152.795L320.284 140.368L312.246 130.865L305.67 122.823L296.901 111.127L290.325 99.4309L286.671 90.6587L284.479 79.6935V70.9213L286.671 59.9561L291.055 48.9909L292.517 46.0668L291.786 45.3358H280.095ZM237.713 301.191L235.521 301.922L235.156 331.163L234.79 360.403L233.329 372.099L230.406 375.755L223.83 377.948L208.485 380.872L207.023 381.603L207.754 385.258L219.445 406.457L241.367 445.932L250.866 462.745L254.52 462.014L255.25 459.821L258.173 403.533L258.904 394.03L261.096 387.451L266.942 384.527L281.556 382.334L283.748 380.872L282.287 376.486L270.595 355.286L248.674 315.811L240.636 301.191H237.713Z" fill="#E5482B"/>
</svg>
