<svg width="1191" height="399" viewBox="0 0 1191 399" fill="none" xmlns="http://www.w3.org/2000/svg">
<g clip-path="url(#clip0_39_163)">
<path d="M186.675 0.116211H209.937L227.383 1.85756L243.667 4.7598L259.368 8.82293L272.744 13.4665L286.119 19.271L295.424 23.9146L304.729 29.1386L318.686 38.4258L326.827 44.8107L334.969 51.7761L339.04 55.8392L343.692 59.9024L348.926 65.7068L354.741 72.0918L363.464 83.7007L369.28 92.4074L375.095 102.275L381.492 114.464L387.889 130.137L392.542 144.648L396.612 162.061L398.938 178.314L399.52 185.279V212.56L397.775 228.813L394.286 246.807L390.215 261.318L384.981 275.249L378.584 289.179L371.606 301.949L365.209 311.817L357.067 322.845L350.089 330.972L344.855 336.776L333.806 347.805L327.409 353.029L318.686 359.994L304.729 369.281L292.516 376.247L279.141 382.631L262.276 389.016L245.411 393.66L230.291 396.562L215.171 398.304L206.448 398.884H194.817L176.208 397.143L158.761 394.24L140.733 389.597L125.613 384.373L109.912 377.407L98.8623 371.603L86.6499 364.057L76.1821 356.511L68.6221 350.126L63.9697 346.063L58.1543 340.839L51.7573 334.454L46.5234 328.069L40.1265 320.524L31.9849 308.915L26.751 300.208L19.7725 287.438L12.7939 271.185L7.56006 254.933L4.0708 241.002L1.74463 227.071L0 207.917V189.342L1.74463 170.187L4.65234 154.515L8.72314 138.843L12.7939 127.234L18.6094 113.304L24.4248 102.275L30.8218 91.2466L38.9634 79.6376L45.3604 71.5113L50.5942 65.7068L54.665 61.0633L65.1328 50.6152L71.5298 45.3912L80.8345 37.8453L91.3022 30.88L100.025 25.6559L113.401 18.6905L126.776 12.8861L142.478 7.66204L156.435 4.17935L173.881 1.27711L186.675 0.116211ZM222.731 35.5235L211.682 37.2649L198.306 40.7476L185.512 45.3912L172.137 51.7761L160.506 58.7415L150.62 65.7068L143.06 72.0918L136.663 77.3158L129.103 84.8616L123.869 91.2466L119.798 95.8901L112.819 105.758L107.585 114.464L101.188 127.815L97.1177 140.004L94.21 152.194L92.4653 163.803L91.8838 171.348V184.699L93.0469 195.727L95.9546 208.497L100.025 220.106L105.841 231.715L111.656 240.422L117.472 247.968L124.45 255.513L129.103 258.416L134.336 258.996L139.57 257.255L143.06 254.933L142.478 253.192L128.521 243.904L137.244 241.583L147.13 239.261V237.519L141.315 232.295L134.918 227.071L128.521 221.267L127.358 220.686L127.939 218.945L138.407 221.267L154.69 225.33L155.854 223.008L134.918 192.245L122.706 174.251L123.869 172.509L126.195 173.67L140.152 187.601L144.804 191.664L168.647 215.462H169.811L166.903 199.79L161.669 173.09H163.414L180.86 205.595L183.186 209.658L185.512 209.077L186.094 207.336L193.654 116.206V113.884H195.98L196.562 132.458L200.051 209.077L202.958 209.658L207.029 203.853L212.263 194.566L222.149 178.314L224.476 174.251L226.22 175.412L216.334 214.302L216.916 216.043L218.66 216.623L227.965 207.917L233.78 202.693L240.759 196.308L245.411 192.245L252.971 185.279L259.95 178.894L265.184 174.251L266.347 174.831L265.184 177.153L248.9 199.21L239.596 211.399L231.454 222.428L228.546 226.491L229.709 228.232L240.177 225.91L258.205 221.267L257.042 224.169L250.645 229.393L243.085 235.778L236.688 241.002L236.106 242.163L248.319 245.646L253.553 247.387L239.596 256.674L238.433 257.255V258.416L245.411 262.479L247.156 263.059H251.227L255.297 260.737L263.439 253.772L270.999 245.646L278.559 235.198L284.375 224.75L289.027 213.721L291.935 202.693L293.098 195.147V179.475L290.771 167.866L287.282 157.998L282.048 148.13L275.651 138.263L269.836 130.137L262.857 120.849L254.716 110.982L248.319 103.436L243.085 97.051L236.106 87.7639L230.873 78.4767L227.965 71.5113L226.22 62.8046V55.8392L227.965 47.1325L231.454 38.4258L232.617 36.104L232.036 35.5235H222.731ZM189.001 238.68L187.257 239.261L186.675 285.697L185.512 294.984L183.186 297.886L177.952 299.627L165.74 301.949L164.577 302.53L165.158 305.432L174.463 322.265L191.909 353.609L199.469 366.959L202.377 366.379L202.958 364.638L205.285 319.943L205.866 312.397L207.611 307.173L212.263 304.851L223.894 303.11L225.639 301.949L224.476 298.466L215.171 281.634L197.725 250.289L191.328 238.68H189.001Z" fill="#E5482B"/>
<path d="M558.863 87.1831H569.912L576.309 88.9244L581.543 92.4071L586.195 97.6312L593.174 110.981L600.152 123.751L610.039 140.004L615.854 149.871H618.18V93.568L619.925 90.0853L621.669 88.344L623.414 87.7636L635.626 87.1831L640.86 88.344L643.768 91.8267L644.35 94.1485V183.537L643.187 187.601L639.697 190.503L632.719 191.664H626.322L618.18 189.922L612.946 187.02L610.039 184.698L604.805 177.153L597.826 162.641L589.685 148.711L578.635 130.136L576.891 127.234L576.309 128.975V184.698L574.564 188.181L571.657 190.503L568.749 191.083H557.118L553.047 189.342L551.303 187.601L550.14 183.537V95.8898L551.303 91.2462L554.21 88.344L558.863 87.1831Z" fill="#E5482B"/>
<path d="M784.501 87.1831L801.366 87.7636L811.252 89.5049L818.812 92.4071L824.046 95.8898L828.699 100.533L832.77 108.66L834.514 115.045L835.096 118.527V124.912L833.351 132.458L829.28 140.004L822.883 146.969L818.812 150.452L821.72 153.354L829.28 159.159L837.422 165.544L844.982 171.348L850.797 175.992L849.634 182.377L847.308 189.922L844.982 192.244L840.911 192.825L827.536 186.44L816.486 180.055L809.508 175.411L804.855 171.348L797.295 161.48L793.225 157.998L790.317 156.837H783.92L779.849 157.417V186.44L778.104 189.342L775.197 191.083H758.914L756.006 189.342L754.261 186.44V92.4071L756.006 88.9244L758.332 87.7636L784.501 87.1831ZM787.409 108.079L782.175 109.821L779.849 113.303V134.78L782.175 137.102L783.92 137.682H792.062L799.04 135.941L803.692 133.038L807.182 128.975L808.345 125.493V117.947L806.019 113.303L803.111 110.981L798.458 109.24L789.735 108.079H787.409Z" fill="#E5482B"/>
<path d="M897.902 218.365H911.278L917.675 220.687L921.164 223.008L926.398 228.813L935.703 247.387L942.681 258.416L949.078 267.703L953.149 273.507L953.73 229.393L954.312 223.008L956.057 220.106L957.801 218.945L960.709 218.365H970.014L976.992 218.945L977.574 219.526V314.139H954.894L950.241 312.397L946.17 307.754L936.284 290.921L926.979 274.668L918.838 260.737L916.512 257.255L915.93 310.076L914.186 312.978L911.859 314.139H895.576L892.668 312.397L891.505 310.076V223.008L893.25 220.106L897.902 218.365Z" fill="#E5482B"/>
<path d="M675.171 217.204H692.036L701.341 218.945L710.646 222.428L717.042 226.491L722.858 231.715L728.092 239.261L731.581 247.387L733.326 254.352L733.907 258.996V272.927L732.163 282.794L728.673 292.081L724.021 299.047L717.042 306.012L709.482 310.656L701.922 313.558L690.873 315.88H673.427L663.541 314.138L654.817 311.236L647.839 307.173L642.023 301.949L637.953 296.145L634.463 288.599L632.137 279.892L630.974 268.283V261.318L632.137 252.611L634.463 245.065L638.534 237.519L644.931 229.973L651.328 225.33L660.633 220.686L668.193 218.365L675.171 217.204ZM677.498 236.939L671.101 238.68L666.448 241.002L661.214 245.646L657.144 253.772L655.98 258.415V274.088L658.307 282.214L662.377 288.599L667.03 292.662L673.427 295.564L676.334 296.145H688.547L695.525 293.823L700.178 290.34L704.249 285.696L707.156 278.731L708.319 273.507V260.157L705.993 250.87L702.504 245.065L697.27 240.422L690.292 237.519L687.384 236.939H677.498Z" fill="#E5482B"/>
<path d="M497.219 218.365H530.367L541.998 219.526L549.558 221.847L554.792 224.75L560.607 229.974L564.678 236.939L567.004 245.065V253.772L564.678 260.737L561.189 267.122L554.792 274.668L552.466 276.99L557.118 281.053L572.238 292.662L580.38 299.047L580.961 299.627L580.38 307.173L578.635 312.978L576.309 315.88L571.075 316.46L562.352 313.558L553.629 308.915L546.069 302.53L541.417 297.886L537.346 293.243L530.949 287.438L519.899 281.053L516.41 282.214V312.978L514.084 313.558H502.453L496.638 311.236L494.312 308.334L491.985 301.949L491.404 296.145V224.75L493.148 220.106L497.219 218.365ZM524.552 238.1L516.992 239.261L516.41 239.841V263.059L516.992 263.64L522.226 264.22H529.204L534.438 262.479L539.09 258.416L540.835 253.772V247.387L539.09 242.744L535.601 239.841L530.949 238.1H524.552Z" fill="#E5482B"/>
<path d="M1047.36 87.1831H1064.22L1071.2 88.9244L1075.27 92.4071L1080.51 104.597L1089.23 128.975L1100.28 160.9L1110.17 189.922V191.083H1088.65L1084.58 189.342L1081.09 184.698L1074.69 169.026L1071.2 164.383L1068.88 162.641L1064.81 161.48L1059.57 160.9H1046.78L1042.12 162.061L1039.22 163.802L1035.15 174.25L1031.66 182.957L1027.59 188.761L1024.1 191.083L1022.35 191.664H1013.05L1003.74 189.342L1004.91 184.118L1014.21 159.739L1025.84 129.556L1035.15 105.757L1040.38 91.8267L1043.29 88.344L1047.36 87.1831ZM1056.66 109.24L1052.01 123.751L1047.36 139.423V141.165H1066.55L1065.97 136.521L1058.99 109.821L1056.66 109.24Z" fill="#E5482B"/>
<path d="M901.392 86.603H920.583L935.121 89.5053L943.263 91.2466L942.681 94.7293L937.447 109.821L936.866 110.401L929.306 109.821L914.186 108.08H908.952L900.81 109.241L893.25 112.143L887.435 116.786L883.364 123.171L881.038 130.717L880.456 135.361V142.906L882.201 151.033L885.69 157.998L889.179 162.061L896.158 166.705L904.881 169.607L908.37 170.188H915.349L918.256 167.285L918.838 150.452L920.583 143.487L924.653 138.843L928.143 137.682H934.54L940.937 139.424L943.844 142.326L944.426 143.487L945.007 151.613V174.831L944.426 182.377L942.1 186.44L938.61 188.762L925.816 191.664L913.022 192.825L900.229 192.245L890.924 190.503L880.456 187.021L874.059 183.538L868.244 178.894L864.173 174.831L858.939 166.705L855.45 157.418L853.705 148.131V133.039L855.45 122.591L858.939 112.143L863.01 105.177L868.244 99.3729L872.896 95.3097L882.201 90.6662L889.761 88.3444L901.392 86.603Z" fill="#E5482B"/>
<path d="M672.264 87.7637H730.418L732.744 88.9246L733.907 91.2464V103.436L732.163 106.338L730.418 107.499L714.135 108.079H696.688L693.199 109.821L691.455 115.045V121.43L692.618 126.654L695.525 129.556L726.929 130.136L729.836 132.458L730.418 133.619V145.228L728.092 148.13L725.766 148.711H692.036L691.455 156.837V165.544L692.036 168.446L695.525 169.607L707.156 170.187H731.581L735.07 171.348L736.815 173.09L737.396 174.831V186.44L735.652 189.342L732.744 191.083H679.824L671.682 190.503L667.611 187.601L665.867 184.698V94.1486L667.611 91.2464L671.101 88.3441L672.264 87.7637Z" fill="#E5482B"/>
<path d="M478.028 87.7637H525.715L528.623 89.505L529.786 92.9877V101.114L528.623 105.758L526.296 107.499L491.985 108.079L489.078 109.821L487.915 112.723V124.912L489.078 128.395L491.404 129.556L522.807 130.136L525.715 131.878L526.878 134.78V144.067L525.133 147.55L522.226 148.711H493.148L489.659 150.452L487.915 153.935V163.802L489.659 168.446L493.148 170.187H511.176L529.786 170.768L532.693 173.67L533.275 175.992V185.279L531.53 189.342L528.041 191.083H467.561L464.071 189.342L462.327 187.02L461.745 184.698V110.401L462.327 102.275L464.653 95.8899L468.724 91.2464L474.539 88.3441L478.028 87.7637Z" fill="#E5482B"/>
<path d="M824.628 218.365H838.003L845.563 219.526L850.216 223.008L854.287 231.715L867.662 271.186L875.804 294.984L880.456 310.076L881.038 314.139H861.847L857.776 312.397L854.287 308.334L848.471 293.823L844.982 289.179L842.074 287.438L840.33 286.858H827.536L822.302 287.438L818.812 289.76L815.323 292.662L808.926 308.334L806.019 312.397L802.529 314.139L799.622 314.719L789.154 314.139L783.338 312.978L785.083 306.012L793.225 284.536L804.274 256.094L815.905 225.33L819.394 220.687L822.302 218.945L824.628 218.365ZM832.188 239.841L828.699 252.031L824.628 267.122V268.283H840.911L840.33 263.64L834.514 240.422L832.188 239.841Z" fill="#E5482B"/>
<path d="M1030.49 218.365H1046.2L1052.01 219.526L1056.66 223.589L1060.15 230.554L1071.2 263.059L1078.18 283.955L1082.83 298.467V302.53L1079.34 307.754L1073.53 312.978L1070.62 314.139H1065.39L1061.32 310.656L1057.83 301.369L1054.92 293.823L1051.43 288.599L1046.2 286.858H1035.15L1027.59 288.019L1021.77 293.243L1020.61 294.403L1017.7 303.11L1014.21 310.076L1011.88 312.978L1008.4 314.719H999.091L989.786 312.978L990.368 308.915L995.602 294.403L1004.91 270.605L1022.35 225.33L1025.26 220.687L1028.17 218.945L1030.49 218.365ZM1039.22 237.52L1030.49 267.122V268.283H1047.36L1045.03 257.255L1040.38 238.68L1039.22 237.52Z" fill="#E5482B"/>
<path d="M754.843 218.365H765.892L770.544 220.106L772.289 223.008L772.871 225.911L772.289 302.53L770.544 312.397L767.637 319.943L763.566 325.748L758.332 330.972L750.772 335.615L739.141 340.259L736.233 339.678L728.673 324.587L731 321.684L739.141 315.88L743.793 310.656L746.12 305.432L747.283 299.627V226.491L748.446 221.847L751.935 218.945L754.843 218.365Z" fill="#E5482B"/>
<path d="M974.084 87.1831H983.971L988.623 88.9244L990.949 91.8267L991.531 93.568V185.279L989.786 188.761L987.46 190.503L985.715 191.083H970.595L967.106 189.342L965.943 187.02L965.361 182.957V93.568L967.106 90.0853L968.851 88.344L974.084 87.1831Z" fill="#E5482B"/>
<path d="M600.734 218.365H614.109L615.854 218.945V314.139H598.989L595.5 312.397L592.592 309.495L592.011 307.754V225.33L593.755 221.847L597.245 218.945L600.734 218.365Z" fill="#E5482B"/>
<path d="M1167.74 218.945L1172.39 219.525L1175.88 222.428L1178.79 229.393L1184.6 245.645L1191 263.639L1190.42 265.381L1187.51 266.542L1183.44 265.961L1181.11 263.639L1178.21 255.513L1175.88 252.611L1171.23 250.869H1165.99L1161.34 252.611L1157.85 257.254L1155.53 261.898L1151.46 265.961L1148.55 267.702L1146.22 264.8L1146.8 261.318L1157.27 234.617L1162.5 222.428L1165.41 220.106L1167.74 218.945ZM1167.74 230.554L1163.67 241.582V242.743H1173.55L1171.81 235.778L1170.06 230.554H1167.74Z" fill="#E5482B"/>
<path d="M1104.93 217.784H1110.75L1115.4 219.526L1117.14 221.267V224.75L1115.98 225.91L1109 227.071L1098.53 227.652V231.134L1104.93 235.778L1114.82 241.583L1118.31 244.485L1121.21 249.128L1121.8 250.87V255.513L1120.05 260.157L1115.98 264.22L1109 267.122L1106.09 267.703H1096.79L1092.14 265.381L1090.39 262.479L1090.97 260.157L1094.46 258.416L1099.7 258.996H1107.26L1110.17 256.674L1110.75 253.772L1106.68 249.128L1100.86 245.065L1096.21 241.583L1092.14 237.519L1090.39 234.037V227.071L1093.3 222.428L1097.95 219.526L1104.93 217.784Z" fill="#E5482B"/>
<path d="M976.992 62.2241H988.623L994.438 63.385L993.857 66.2873L989.786 71.5113L983.971 75.5744L969.432 82.5398L967.106 83.7007L966.524 82.5398V72.6722L968.269 68.0286L971.177 64.5459L974.666 62.8046L976.992 62.2241Z" fill="#E5482B"/>
</g>
<defs>
<clipPath id="clip0_39_163">
<rect width="1191" height="399" fill="white"/>
</clipPath>
</defs>
</svg>
