<svg width="184" height="62" viewBox="0 0 184 62" fill="none" xmlns="http://www.w3.org/2000/svg">
<g clip-path="url(#clip0_130_101)">
<path d="M28.8398 0.0180664H32.4336L35.1289 0.288651L37.6445 0.739626L40.0703 1.37099L42.1367 2.09255L44.2031 2.9945L45.6406 3.71606L47.0781 4.52781L49.2344 5.97093L50.4922 6.96308L51.75 8.04542L52.3789 8.67678L53.0977 9.30814L53.9062 10.2101L54.8047 11.2022L56.1523 13.0061L57.0508 14.3591L57.9492 15.8924L58.9375 17.7865L59.9258 20.2217L60.6445 22.4766L61.2734 25.1825L61.6328 27.7079L61.7227 28.7903V33.0294L61.4531 35.5549L60.9141 38.3509L60.2852 40.6058L59.4766 42.7705L58.4883 44.9351L57.4102 46.9194L56.4219 48.4527L55.1641 50.1664L54.0859 51.4292L53.2773 52.3311L51.5703 54.0448L50.582 54.8566L49.2344 55.9389L47.0781 57.382L45.1914 58.4644L43.125 59.4565L40.5195 60.4487L37.9141 61.1702L35.5781 61.6212L33.2422 61.8918L31.8945 61.982H30.0977L27.2227 61.7114L24.5273 61.2604L21.7422 60.5389L19.4062 59.7271L16.9805 58.6448L15.2734 57.7428L13.3867 56.5703L11.7695 55.3978L10.6016 54.4056L9.88281 53.7742L8.98438 52.9625L7.99609 51.9703L7.1875 50.9782L6.19922 49.8057L4.94141 48.0018L4.13281 46.6488L3.05469 44.6646L1.97656 42.1391L1.16797 39.6136L0.628906 37.449L0.269531 35.2843L0 32.3079V29.4216L0.269531 26.4452L0.71875 24.0099L1.34766 21.5747L1.97656 19.7708L2.875 17.6061L3.77344 15.8924L4.76172 14.1787L6.01953 12.3748L7.00781 11.112L7.81641 10.2101L8.44531 9.48853L10.0625 7.86503L11.0508 7.05327L12.4883 5.88074L14.1055 4.7984L15.4531 3.98664L17.5195 2.9043L19.5859 2.00235L22.0117 1.1906L24.168 0.649431L26.8633 0.198456L28.8398 0.0180664ZM34.4102 5.51996L32.7031 5.79054L30.6367 6.33171L28.6602 7.05327L26.5938 8.04542L24.7969 9.12775L23.2695 10.2101L22.1016 11.2022L21.1133 12.014L19.9453 13.1865L19.1367 14.1787L18.5078 14.9002L17.4297 16.4335L16.6211 17.7865L15.6328 19.861L15.0039 21.755L14.5547 23.6491L14.2852 25.453L14.1953 26.6256V28.7001L14.375 30.4138L14.8242 32.398L15.4531 34.2019L16.3516 36.0058L17.25 37.3588L18.1484 38.5313L19.2266 39.7038L19.9453 40.1548L20.7539 40.245L21.5625 39.9744L22.1016 39.6136L22.0117 39.3431L19.8555 37.8999L21.2031 37.5392L22.7305 37.1784V36.9078L21.832 36.096L20.8438 35.2843L19.8555 34.3823L19.6758 34.2921L19.7656 34.0216L21.3828 34.3823L23.8984 35.0137L24.0781 34.6529L20.8438 29.8726L18.957 27.0765L19.1367 26.806L19.4961 26.9864L21.6523 29.151L22.3711 29.7824L26.0547 33.4804H26.2344L25.7852 31.0451L24.9766 26.8962H25.2461L27.9414 31.9471L28.3008 32.5784L28.6602 32.4882L28.75 32.2177L29.918 18.0571V17.6963H30.2773L30.3672 20.5825L30.9062 32.4882L31.3555 32.5784L31.9844 31.6765L32.793 30.2334L34.3203 27.7079L34.6797 27.0765L34.9492 27.2569L33.4219 33.3L33.5117 33.5706L33.7812 33.6608L35.2188 32.3079L36.1172 31.4961L37.1953 30.504L37.9141 29.8726L39.082 28.7903L40.1602 27.7981L40.9688 27.0765L41.1484 27.1667L40.9688 27.5275L38.4531 30.9549L37.0156 32.849L35.7578 34.5627L35.3086 35.1941L35.4883 35.4647L37.1055 35.1039L39.8906 34.3823L39.7109 34.8333L38.7227 35.6451L37.5547 36.6372L36.5664 37.449L36.4766 37.6294L38.3633 38.1705L39.1719 38.4411L37.0156 39.8842L36.8359 39.9744V40.1548L37.9141 40.7862L38.1836 40.8764H38.8125L39.4414 40.5156L40.6992 39.4333L41.8672 38.1705L43.0352 36.547L43.9336 34.9235L44.6523 33.2098L45.1016 31.4961L45.2812 30.3236V27.8883L44.9219 26.0844L44.3828 24.5511L43.5742 23.0178L42.5859 21.4845L41.6875 20.2217L40.6094 18.7786L39.3516 17.2453L38.3633 16.0728L37.5547 15.0806L36.4766 13.6375L35.668 12.1944L35.2188 11.112L34.9492 9.75912V8.67678L35.2188 7.32386L35.7578 5.97093L35.9375 5.61015L35.8477 5.51996H34.4102ZM29.1992 37.0882L28.9297 37.1784L28.8398 44.394L28.6602 45.8371L28.3008 46.2881L27.4922 46.5587L25.6055 46.9194L25.4258 47.0096L25.5156 47.4606L26.9531 50.0763L29.6484 54.9468L30.8164 57.0213L31.2656 56.9311L31.3555 56.6605L31.7148 49.7155L31.8047 48.5429L32.0742 47.7312L32.793 47.3704L34.5898 47.0998L34.8594 46.9194L34.6797 46.3783L33.2422 43.7626L30.5469 38.8921L29.5586 37.0882H29.1992Z" fill="white"/>
<path d="M86.3398 13.5474H88.0469L89.0352 13.8179L89.8438 14.3591L90.5625 15.1709L91.6406 17.2454L92.7188 19.2296L94.2461 21.7551L95.1445 23.2884H95.5039V14.5395L95.7734 13.9983L96.043 13.7278L96.3125 13.6376L98.1992 13.5474L99.0078 13.7278L99.457 14.2689L99.5469 14.6297V28.5197L99.3672 29.1511L98.8281 29.6021L97.75 29.7824H96.7617L95.5039 29.5119L94.6953 29.0609L94.2461 28.7001L93.4375 27.5276L92.3594 25.2727L91.1016 23.108L89.3945 20.2218L89.125 19.7708L89.0352 20.0414V28.7001L88.7656 29.2413L88.3164 29.6021L87.8672 29.6923H86.0703L85.4414 29.4217L85.1719 29.1511L84.9922 28.5197V14.9003L85.1719 14.1787L85.6211 13.7278L86.3398 13.5474Z" fill="white"/>
<path d="M121.199 13.5474L123.805 13.6376L125.332 13.9081L126.5 14.3591L127.309 14.9003L128.027 15.6218L128.656 16.8846L128.926 17.8767L129.016 18.4179V19.41L128.746 20.5826L128.117 21.7551L127.129 22.8374L126.5 23.3786L126.949 23.8296L128.117 24.7315L129.375 25.7237L130.543 26.6256L131.441 27.3472L131.262 28.3393L130.902 29.5119L130.543 29.8726L129.914 29.9628L127.848 28.9707L126.141 27.9786L125.062 27.257L124.344 26.6256L123.176 25.0923L122.547 24.5511L122.098 24.3708H121.109L120.48 24.461V28.9707L120.211 29.4217L119.762 29.6923H117.246L116.797 29.4217L116.527 28.9707V14.3591L116.797 13.8179L117.156 13.6376L121.199 13.5474ZM121.648 16.7944L120.84 17.065L120.48 17.6061V20.9433L120.84 21.3041L121.109 21.3943H122.367L123.445 21.1237L124.164 20.6728L124.703 20.0414L124.883 19.5002V18.3277L124.523 17.6061L124.074 17.2454L123.355 16.9748L122.008 16.7944H121.648Z" fill="white"/>
<path d="M138.719 33.9312H140.785L141.773 34.2919L142.312 34.6527L143.121 35.5547L144.559 38.4409L145.637 40.1546L146.625 41.5977L147.254 42.4997L147.344 35.6449L147.434 34.6527L147.703 34.2017L147.973 34.0213L148.422 33.9312H149.859L150.938 34.0213L151.027 34.1115V48.8133H147.523L146.805 48.5427L146.176 47.8212L144.648 45.2055L143.211 42.6801L141.953 40.5154L141.594 39.9742L141.504 48.1819L141.234 48.6329L140.875 48.8133H138.359L137.91 48.5427L137.73 48.1819V34.6527L138 34.2017L138.719 33.9312Z" fill="white"/>
<path d="M104.309 33.751H106.914L108.352 34.0216L109.789 34.5627L110.777 35.1941L111.676 36.0058L112.484 37.1784L113.023 38.4411L113.293 39.5235L113.383 40.245V42.4097L113.113 43.943L112.574 45.3861L111.855 46.4685L110.777 47.5508L109.609 48.2724L108.441 48.7233L106.734 49.0841H104.039L102.512 48.8135L101.164 48.3626L100.086 47.7312L99.1875 46.9194L98.5586 46.0175L98.0195 44.845L97.6602 43.492L97.4805 41.6881V40.6058L97.6602 39.2529L98.0195 38.0803L98.6484 36.9078L99.6367 35.7353L100.625 35.0137L102.062 34.2921L103.23 33.9314L104.309 33.751ZM104.668 36.8176L103.68 37.0882L102.961 37.449L102.152 38.1705L101.523 39.4333L101.344 40.1548V42.5901L101.703 43.8528L102.332 44.845L103.051 45.4763L104.039 45.9273L104.488 46.0175H106.375L107.453 45.6567L108.172 45.1155L108.801 44.394L109.25 43.3116L109.43 42.4999V40.4254L109.07 38.9823L108.531 38.0803L107.723 37.3588L106.645 36.9078L106.195 36.8176H104.668Z" fill="white"/>
<path d="M76.8164 33.9312H81.9375L83.7344 34.1115L84.9023 34.4723L85.7109 34.9233L86.6094 35.7351L87.2383 36.8174L87.5977 38.0801V39.433L87.2383 40.5154L86.6992 41.5075L85.7109 42.6801L85.3516 43.0408L86.0703 43.6722L88.4062 45.4761L89.6641 46.4682L89.7539 46.5584L89.6641 47.731L89.3945 48.6329L89.0352 49.0839L88.2266 49.1741L86.8789 48.7231L85.5312 48.0016L84.3633 47.0094L83.6445 46.2879L83.0156 45.5663L82.0273 44.6643L80.3203 43.6722L79.7812 43.8526V48.6329L79.4219 48.7231H77.625L76.7266 48.3623L76.3672 47.9114L76.0078 46.9192L75.918 46.0173V34.9233L76.1875 34.2017L76.8164 33.9312ZM81.0391 36.9978L79.8711 37.1782L79.7812 37.2684V40.8762L79.8711 40.9664L80.6797 41.0566H81.7578L82.5664 40.786L83.2852 40.1546L83.5547 39.433V38.4409L83.2852 37.7193L82.7461 37.2684L82.0273 36.9978H81.0391Z" fill="white"/>
<path d="M161.809 13.5474H164.414L165.492 13.8179L166.121 14.3591L166.93 16.2532L168.277 20.0414L169.984 25.0021L171.512 29.5119V29.6923H168.188L167.559 29.4217L167.02 28.7001L166.031 26.2648L165.492 25.5433L165.133 25.2727L164.504 25.0923L163.695 25.0021H161.719L161 25.1825L160.551 25.4531L159.922 27.0766L159.383 28.4295L158.754 29.3315L158.215 29.6923L157.945 29.7824H156.508L155.07 29.4217L155.25 28.6099L156.688 24.8217L158.484 20.1316L159.922 16.4336L160.73 14.2689L161.18 13.7278L161.809 13.5474ZM163.246 16.9748L162.527 19.2296L161.809 21.6649V21.9355H164.773L164.684 21.2139L163.605 17.065L163.246 16.9748Z" fill="white"/>
<path d="M139.258 13.457H142.223L144.469 13.908L145.727 14.1786L145.637 14.7198L144.828 17.0648L144.738 17.155L143.57 17.0648L141.234 16.7942H140.426L139.168 16.9746L138 17.4256L137.102 18.1472L136.473 19.1393L136.113 20.3118L136.023 21.0334V22.2059L136.293 23.4687L136.832 24.551L137.371 25.1824L138.449 25.9039L139.797 26.3549L140.336 26.4451H141.414L141.863 25.9941L141.953 23.3785L142.223 22.2961L142.852 21.5746L143.391 21.3942H144.379L145.367 21.6648L145.816 22.1157L145.906 22.2961L145.996 23.5589V27.1667L145.906 28.3392L145.547 28.9706L145.008 29.3313L143.031 29.7823L141.055 29.9627L139.078 29.8725L137.641 29.6019L136.023 29.0608L135.035 28.5196L134.137 27.798L133.508 27.1667L132.699 25.9039L132.16 24.4608L131.891 23.0177V20.6726L132.16 19.0491L132.699 17.4256L133.328 16.3433L134.137 15.4413L134.855 14.81L136.293 14.0884L137.461 13.7276L139.258 13.457Z" fill="white"/>
<path d="M103.859 13.6377H112.844L113.203 13.8181L113.383 14.1789V16.073L113.113 16.5239L112.844 16.7043L110.328 16.7945H107.633L107.094 17.0651L106.824 17.8769V18.869L107.004 19.6808L107.453 20.1317L112.305 20.2219L112.754 20.5827L112.844 20.7631V22.567L112.484 23.018L112.125 23.1082H106.914L106.824 24.3709V25.7238L106.914 26.1748L107.453 26.3552L109.25 26.4454H113.023L113.562 26.6258L113.832 26.8963L113.922 27.1669V28.9708L113.652 29.4218L113.203 29.6924H105.027L103.77 29.6022L103.141 29.1512L102.871 28.7002V14.6298L103.141 14.1789L103.68 13.7279L103.859 13.6377Z" fill="white"/>
<path d="M73.8516 13.6377H81.2188L81.668 13.9083L81.8477 14.4494V15.7122L81.668 16.4337L81.3086 16.7043L76.0078 16.7945L75.5586 17.0651L75.3789 17.5161V19.4102L75.5586 19.9513L75.918 20.1317L80.7695 20.2219L81.2188 20.4925L81.3984 20.9435V22.3866L81.1289 22.9278L80.6797 23.1082H76.1875L75.6484 23.3787L75.3789 23.9199V25.4532L75.6484 26.1748L76.1875 26.4454H78.9727L81.8477 26.5356L82.2969 26.9865L82.3867 27.3473V28.7904L82.1172 29.4218L81.5781 29.6924H72.2344L71.6953 29.4218L71.4258 29.061L71.3359 28.7002V17.1553L71.4258 15.8926L71.7852 14.9004L72.4141 14.1789L73.3125 13.7279L73.8516 13.6377Z" fill="white"/>
<path d="M127.398 33.9312H129.465L130.633 34.1115L131.352 34.6527L131.98 36.0056L134.047 42.1389L135.305 45.8369L136.023 48.1819L136.113 48.8133H133.148L132.52 48.5427L131.98 47.9114L131.082 45.6565L130.543 44.9349L130.094 44.6643L129.824 44.5742H127.848L127.039 44.6643L126.5 45.0251L125.961 45.4761L124.973 47.9114L124.523 48.5427L123.984 48.8133L123.535 48.9035L121.918 48.8133L121.02 48.6329L121.289 47.5506L122.547 44.2134L124.254 39.7938L126.051 35.0135L126.59 34.2919L127.039 34.0213L127.398 33.9312ZM128.566 37.2684L128.027 39.1625L127.398 41.5075V41.6879H129.914L129.824 40.9664L128.926 37.3586L128.566 37.2684Z" fill="white"/>
<path d="M159.203 33.9312H161.629L162.527 34.1115L163.246 34.7429L163.785 35.8252L165.492 40.8762L166.57 44.1232L167.289 46.3781V47.0094L166.75 47.8212L165.852 48.6329L165.402 48.8133H164.594L163.965 48.2721L163.426 46.829L162.977 45.6565L162.438 44.8447L161.629 44.5742H159.922L158.754 44.7545L157.855 45.5663L157.676 45.7467L157.227 47.0996L156.688 48.1819L156.328 48.6329L155.789 48.9035H154.352L152.914 48.6329L153.004 48.0016L153.812 45.7467L155.25 42.0487L157.945 35.0135L158.395 34.2919L158.844 34.0213L159.203 33.9312ZM160.551 36.9076L159.203 41.5075V41.6879H161.809L161.449 39.9742L160.73 37.088L160.551 36.9076Z" fill="white"/>
<path d="M116.617 33.9312H118.324L119.043 34.2017L119.312 34.6527L119.402 35.1037L119.312 47.0094L119.043 48.5427L118.594 49.7153L117.965 50.6172L117.156 51.429L115.988 52.1505L114.191 52.8721L113.742 52.7819L112.574 50.4368L112.934 49.9858L114.191 49.0839L114.91 48.2721L115.27 47.4604L115.449 46.5584V35.1939L115.629 34.4723L116.168 34.0213L116.617 33.9312Z" fill="white"/>
<path d="M150.488 13.5474H152.016L152.734 13.8179L153.094 14.2689L153.184 14.5395V28.7903L152.914 29.3315L152.555 29.6021L152.285 29.6923H149.949L149.41 29.4217L149.23 29.0609L149.141 28.4295V14.5395L149.41 13.9983L149.68 13.7278L150.488 13.5474Z" fill="white"/>
<path d="M92.8086 33.9312H94.875L95.1445 34.0213V48.8133H92.5391L92 48.5427L91.5508 48.0918L91.4609 47.8212V35.0135L91.7305 34.4723L92.2695 34.0213L92.8086 33.9312Z" fill="white"/>
<path d="M180.406 34.0215L181.125 34.1117L181.664 34.5627L182.113 35.645L183.012 38.1705L184 40.9665L183.91 41.2371L183.461 41.4175L182.832 41.3273L182.473 40.9665L182.023 39.7038L181.664 39.2528L180.945 38.9822H180.137L179.418 39.2528L178.879 39.9743L178.52 40.6959L177.891 41.3273L177.441 41.5979L177.082 41.1469L177.172 40.6057L178.789 36.4567L179.598 34.5627L180.047 34.2019L180.406 34.0215ZM180.406 35.8254L179.777 37.5391V37.7195H181.305L181.035 36.6371L180.766 35.8254H180.406Z" fill="white"/>
<path d="M170.703 33.8413H171.602L172.32 34.1119L172.59 34.3825V34.9236L172.41 35.104L171.332 35.2844L169.715 35.3746V35.9158L170.703 36.6374L172.23 37.5393L172.77 37.9903L173.219 38.7118L173.309 38.9824V39.704L173.039 40.4255L172.41 41.0569L171.332 41.5079L170.883 41.5981H169.445L168.727 41.2373L168.457 40.7863L168.547 40.4255L169.086 40.155L169.895 40.2451H171.062L171.512 39.8844L171.602 39.4334L170.973 38.7118L170.074 38.0805L169.355 37.5393L168.727 36.9079L168.457 36.3668V35.2844L168.906 34.5629L169.625 34.1119L170.703 33.8413Z" fill="white"/>
<path d="M150.938 9.66895H152.734L153.633 9.84934L153.543 10.3003L152.914 11.1121L152.016 11.7434L149.77 12.8258L149.41 13.0062L149.32 12.8258V11.2925L149.59 10.5709L150.039 10.0297L150.578 9.75914L150.938 9.66895Z" fill="white"/>
</g>
<defs>
<clipPath id="clip0_130_101">
<rect width="184" height="62" fill="white"/>
</clipPath>
</defs>
</svg>
